<?xml version="1.0" standalone="no"?>
<!DOCTYPE svg PUBLIC "-//W3C//DTD SVG 20010904//EN"
 "http://www.w3.org/TR/2001/REC-SVG-20010904/DTD/svg10.dtd">
<svg version="1.0" xmlns="http://www.w3.org/2000/svg"
 width="1004.000000pt" height="700.000000pt" viewBox="0 0 1004.000000 700.000000"
 preserveAspectRatio="xMidYMid meet">

<g transform="translate(0.000000,700.000000) scale(0.100000,-0.100000)"
fill="#000000" stroke="none">
<path d="M220 6910 c0 -84 1 -90 21 -90 48 0 3 -18 -76 -29 -47 -7 -87 -16
-89 -20 -2 -3 33 -6 79 -6 46 0 86 -3 90 -7 4 -4 -3 -28 -15 -53 l-23 -47 48
-43 c39 -37 46 -48 40 -67 -14 -44 -17 -100 -6 -111 6 -6 11 -30 11 -53 0 -24
4 -54 10 -68 5 -15 6 -26 1 -26 -9 0 -20 28 -35 85 -3 11 -3 -4 0 -33 3 -37 2
-52 -6 -47 -6 3 -8 10 -5 15 3 5 0 12 -6 16 -8 4 -9 -3 -5 -27 7 -32 6 -33 -8
-15 -9 11 -19 34 -22 53 -3 18 -10 33 -14 33 -5 0 -2 -23 5 -51 11 -42 11 -51
0 -55 -8 -3 -19 -3 -25 1 -5 3 -10 -1 -10 -10 0 -9 -4 -13 -10 -10 -5 3 -10
-3 -10 -14 0 -25 31 -28 54 -6 19 20 33 19 39 -2 4 -14 5 -12 6 5 1 24 16 30
24 10 3 -8 6 -6 6 5 2 36 20 15 30 -35 l10 -53 -4 53 c-4 54 9 72 19 25 3 -16
10 -67 16 -115 6 -48 13 -94 16 -102 3 -8 1 -17 -5 -21 -6 -3 -11 -1 -11 4 0
6 -23 2 -52 -10 -29 -11 -55 -20 -56 -19 -2 1 -7 -1 -10 -5 -4 -4 20 -5 53 -1
142 13 221 16 234 7 15 -10 7 -14 -64 -28 -38 -8 -37 -8 29 -13 66 -5 69 -6
52 -22 -10 -10 -29 -18 -44 -19 -20 -1 -16 -4 16 -11 76 -17 57 -27 -83 -47
l-60 -9 73 -1 c54 -1 73 -4 70 -13 -4 -12 -18 -16 -118 -36 -42 -8 -39 -9 30
-8 51 1 75 -3 75 -11 0 -6 3 -15 7 -19 4 -4 3 -14 -4 -21 -7 -9 -8 -17 -2 -21
36 -25 36 -212 0 -307 -8 -22 -15 -51 -15 -65 1 -22 3 -20 16 13 9 20 19 37
24 37 9 0 2 -53 -11 -80 -3 -8 -6 -67 -5 -130 1 -84 -2 -119 -12 -131 -12 -15
-11 -16 14 -11 24 5 26 3 15 -10 -8 -11 -10 -23 -4 -39 11 -28 5 -49 -17 -66
-9 -7 -11 -13 -5 -13 8 0 11 -27 8 -87 -5 -119 -8 -139 -24 -157 -7 -9 -8 -16
-3 -16 14 0 7 -81 -7 -90 -17 -10 4 -22 25 -14 12 5 16 2 14 -12 -2 -10 0 -25
5 -32 12 -20 17 -92 6 -92 -5 0 -16 -13 -24 -28 -14 -28 -18 -51 -31 -187 -4
-38 -9 -79 -11 -90 -4 -16 -3 -17 4 -5 11 17 42 165 42 198 0 11 5 24 11 28
18 11 -4 -223 -26 -278 -5 -14 -2 -18 14 -18 19 0 20 -4 16 -52 -4 -35 -1 -58
10 -74 11 -17 11 -24 2 -27 -9 -3 -9 -7 1 -20 11 -13 10 -17 -3 -24 -14 -8
-13 -11 5 -28 24 -21 26 -37 5 -29 -11 5 -15 -1 -15 -24 0 -17 4 -33 9 -37 6
-3 6 -17 1 -35 -6 -20 -5 -30 2 -30 6 0 7 -8 3 -17 -6 -16 -32 -133 -54 -240
-14 -72 5 -48 29 37 13 44 27 80 33 80 12 0 0 -79 -19 -125 -8 -20 -14 -69
-15 -117 0 -46 -1 -114 -2 -153 -2 -38 2 -76 7 -84 7 -9 5 -17 -9 -27 -17 -13
-16 -14 21 -15 21 -1 31 -3 22 -6 -12 -3 -18 -14 -18 -33 0 -22 4 -28 15 -24
20 8 19 -9 -3 -54 -22 -46 -21 -121 2 -157 13 -19 14 -30 7 -39 -6 -7 -8 -16
-4 -19 3 -4 1 -13 -6 -21 -9 -11 -9 -15 1 -19 11 -4 11 -8 0 -26 -10 -18 -10
-22 3 -27 19 -8 20 -24 0 -24 -8 0 -15 -4 -15 -10 0 -13 13 -13 26 -1 5 5 25
11 44 13 l35 3 3 74 c2 41 -2 79 -7 84 -6 6 -24 10 -41 9 -27 -1 -30 2 -32 31
0 18 0 39 1 47 1 8 3 31 4 50 2 28 7 35 24 36 49 3 53 9 53 88 0 80 -5 89 -50
88 l-28 -1 2 87 c1 79 3 87 21 88 57 2 55 -1 55 84 l0 79 -33 6 c-33 6 -33 7
-43 83 -6 42 -9 79 -8 81 2 2 16 5 31 6 16 1 34 3 41 3 8 2 12 25 12 82 l0 79
-35 7 c-39 7 -35 -7 -38 144 -1 18 4 25 18 26 57 2 55 -1 55 84 0 85 2 81 -53
84 -17 1 -19 11 -19 86 0 75 2 85 19 86 55 3 53 -1 53 84 l0 79 -34 6 c-33 7
-33 7 -40 75 -6 69 -1 104 15 95 4 -3 20 -3 34 1 24 6 25 9 25 85 l0 78 -34 6
c-34 7 -34 8 -38 63 -6 104 -4 108 58 107 l54 0 0 88 c0 56 -4 86 -10 82 -6
-3 -30 -3 -55 1 l-45 6 0 84 c0 109 18 110 23 2 l3 -83 2 81 c2 79 3 82 28 88
15 4 32 2 40 -5 12 -10 14 3 14 85 0 86 -2 96 -16 88 -9 -5 -27 -7 -40 -4 -23
4 -24 8 -24 87 0 82 0 83 28 88 15 3 33 1 40 -5 9 -8 12 10 12 86 0 89 -1 96
-17 88 -10 -6 -28 -6 -40 -1 -21 8 -23 15 -23 88 0 75 1 79 24 83 13 3 31 1
40 -4 14 -8 16 2 16 84 l0 93 -37 0 -38 0 -3 78 c-3 73 -1 78 20 86 13 5 30 5
39 0 14 -7 17 14 22 202 6 173 10 216 24 240 l17 29 777 0 777 0 18 -37 c18
-36 19 -95 24 -1333 3 -712 7 -1261 8 -1219 1 54 6 77 15 76 6 0 29 1 50 1
l37 2 0 86 c0 54 -4 83 -10 79 -5 -3 -10 -40 -10 -81 0 -41 -4 -74 -10 -74 -5
0 -8 32 -7 75 2 70 1 74 -21 80 -13 3 -27 3 -32 0 -6 -4 -10 30 -10 85 0 53 4
89 9 86 5 -4 21 -2 35 4 25 9 26 13 26 84 0 71 -1 74 -25 80 -14 4 -30 4 -35
1 -6 -4 -10 29 -10 83 0 65 3 90 13 89 6 0 29 1 50 1 l37 2 0 86 c0 56 -4 83
-10 79 -6 -4 -29 -4 -50 0 l-40 7 1 86 c0 58 3 80 9 67 7 -15 9 -16 9 -4 1 17
55 34 72 23 5 -3 9 32 9 79 l0 84 -30 2 c-76 4 -70 -3 -68 91 l2 85 6 -80 6
-80 2 73 c2 67 4 73 27 82 14 5 32 7 40 4 13 -5 15 7 15 78 l0 85 -31 1 c-17
0 -34 3 -37 7 -7 7 -4 157 3 164 3 2 18 4 35 4 l30 0 0 84 0 83 -35 0 -35 0 0
85 c0 90 2 93 58 86 9 -1 12 21 12 84 l0 85 -35 0 c-32 0 -35 3 -35 29 0 34
22 55 50 48 13 -3 20 0 20 8 0 10 -16 15 -52 17 -43 2 -54 7 -56 22 -3 11 4
26 14 33 18 13 18 15 2 24 -10 6 -18 21 -18 35 0 16 4 23 11 18 7 -4 9 0 5 14
-15 47 -16 47 870 50 l830 3 14 -38 c12 -32 15 -407 18 -2463 2 -1569 6 -2420
12 -2410 8 12 12 13 19 1 7 -11 12 -10 30 5 18 16 21 29 21 92 0 66 -2 73 -22
81 -13 5 -29 6 -36 4 -9 -4 -12 16 -12 80 l0 86 33 3 32 3 3 78 c3 73 1 78
-20 86 -13 5 -29 6 -35 4 -10 -4 -13 16 -13 80 l0 86 33 3 32 3 3 78 c3 73 1
78 -20 86 -13 5 -29 6 -35 4 -10 -4 -13 16 -13 82 0 66 3 86 13 82 6 -2 22 -1
35 4 20 8 22 15 22 84 0 69 -2 76 -22 84 -13 5 -29 6 -35 4 -10 -4 -13 17 -13
87 0 55 4 89 10 85 5 -3 21 -3 35 1 24 6 25 9 25 85 l0 78 -35 7 -35 6 0 83
c0 60 3 83 13 82 57 -2 57 -2 57 82 0 76 -1 79 -25 85 -14 4 -30 4 -35 1 -6
-4 -10 30 -10 85 0 55 4 89 10 85 5 -3 21 -3 35 1 24 6 25 9 25 84 0 75 -1 78
-25 84 -14 4 -30 4 -35 1 -6 -4 -10 30 -10 85 0 55 4 89 10 85 5 -3 21 -3 35
1 24 6 25 9 25 84 0 75 -1 78 -25 84 -14 4 -30 4 -35 1 -6 -4 -10 30 -10 85 0
55 4 89 10 85 5 -3 21 -3 35 1 24 6 25 9 25 84 0 75 -1 78 -25 84 -14 4 -30 4
-35 1 -6 -4 -10 29 -10 82 l0 89 55 -1 55 0 0 88 c0 56 -4 86 -10 82 -6 -3
-30 -3 -55 1 l-45 6 0 84 c0 77 12 110 23 67 4 -15 5 -16 6 -2 1 18 49 35 62
22 4 -4 10 -44 12 -88 1 -44 4 -2 5 94 2 143 0 172 -11 162 -9 -7 -24 -8 -43
-2 -16 4 -35 6 -41 4 -10 -4 -13 17 -13 81 0 107 18 114 23 9 l3 -78 2 76 c2
74 3 77 28 83 15 4 31 3 35 -1 4 -4 10 -42 12 -83 1 -41 4 159 5 445 1 286 5
571 9 633 4 69 2 112 -3 112 -6 0 -8 -16 -6 -36 3 -27 0 -39 -12 -46 -16 -9
-16 -11 -1 -22 10 -7 16 -21 13 -32 -2 -15 -13 -20 -56 -22 -50 -3 -52 -2 -52
23 0 14 6 28 14 31 8 3 12 12 9 20 -3 8 -10 11 -15 8 -11 -7 -2 85 9 96 14 14
233 19 929 19 l771 1 13 -37 c10 -29 14 -170 17 -580 3 -318 9 -541 14 -537 5
3 9 -32 9 -81 0 -55 -4 -84 -10 -80 -6 4 -10 -28 -10 -90 0 -62 4 -94 10 -90
6 4 10 -25 10 -79 0 -51 -4 -86 -10 -86 -6 0 -10 -37 -10 -91 0 -57 4 -88 10
-84 6 4 10 -25 10 -79 0 -51 -4 -86 -10 -86 -6 0 -10 -37 -10 -91 0 -57 4 -88
10 -84 6 4 10 -27 10 -85 0 -58 -4 -89 -10 -85 -6 4 -10 -26 -10 -83 0 -87 1
-89 23 -87 12 1 37 3 55 4 l32 1 0 80 c0 47 -4 80 -10 80 -6 0 -10 -32 -10
-75 0 -48 -4 -75 -11 -75 -8 0 -10 24 -7 75 3 68 2 74 -17 77 -18 3 -20 10
-20 88 0 81 1 85 23 88 21 3 22 8 22 82 0 75 -1 78 -25 84 -25 6 -26 8 -23 89
l3 82 38 3 37 3 0 84 c0 71 -2 83 -15 79 -8 -4 -26 -3 -40 0 -24 6 -25 9 -25
90 0 80 1 84 24 90 14 3 32 3 40 0 14 -5 16 6 16 80 0 76 -2 86 -17 84 -62 -5
-63 -4 -63 82 0 77 1 81 25 90 14 5 32 7 40 4 13 -5 15 7 15 78 l0 85 -30 1
c-48 1 -51 7 -44 90 3 42 8 79 10 81 2 2 17 4 34 4 l30 0 0 84 0 83 -35 0 -35
0 0 85 c0 90 1 91 53 87 15 -2 17 8 17 83 l0 85 -35 0 c-32 0 -35 3 -35 29 0
34 22 55 50 48 13 -3 20 0 20 8 0 10 -17 15 -52 17 -46 3 -53 6 -56 26 -2 13
3 25 12 28 20 8 21 34 1 34 -10 0 -15 10 -15 28 0 22 2 24 11 12 8 -12 9 -9 5
11 -12 56 -44 54 864 57 l836 3 14 -38 c12 -32 15 -406 18 -2463 2 -1569 6
-2420 12 -2410 8 12 12 13 19 1 7 -11 12 -10 30 5 18 16 21 29 21 92 0 66 -2
73 -22 81 -13 5 -29 6 -35 4 -10 -4 -13 16 -13 80 l0 86 33 3 32 3 0 80 0 80
-32 3 -33 3 0 84 0 84 33 3 32 3 3 78 c3 73 1 78 -20 86 -13 5 -29 6 -35 4
-10 -4 -13 16 -13 82 0 66 3 86 13 82 6 -2 22 -1 35 4 20 8 22 15 22 84 0 69
-2 76 -22 84 -13 5 -29 6 -35 4 -10 -4 -13 17 -13 87 0 55 4 89 10 85 5 -3 21
-3 35 1 24 6 25 9 25 85 l0 78 -35 7 -35 6 0 83 c0 60 3 83 13 82 57 -2 57 -2
57 83 l0 79 -35 7 -35 6 0 85 c0 51 4 82 10 78 5 -3 21 -3 35 1 24 6 25 9 25
85 l0 78 -35 7 -35 6 0 85 c0 51 4 82 10 78 5 -3 21 -3 35 1 24 6 25 9 25 84
0 72 -2 78 -22 85 -13 4 -29 6 -35 6 -10 -1 -13 21 -13 86 0 62 3 84 11 76 7
-7 17 -7 35 1 22 10 24 16 24 87 0 71 -2 77 -22 84 -13 4 -29 6 -35 6 -10 -1
-13 20 -13 77 l0 80 35 6 34 7 4 77 3 77 2 -76 c1 -58 6 -78 17 -83 13 -4 15
9 15 85 0 58 -4 88 -10 84 -6 -3 -30 -3 -55 1 l-45 6 0 84 c0 90 16 116 23 37
l3 -48 2 46 c2 42 5 48 28 53 15 4 31 3 35 -1 4 -4 10 -44 12 -88 1 -44 4 233
5 615 1 382 4 747 6 810 3 63 2 99 -1 80 -2 -19 -11 -42 -19 -51 -13 -15 -13
-17 1 -23 10 -3 15 -15 13 -28 -3 -20 -10 -23 -55 -26 -51 -3 -53 -2 -53 22 0
15 5 26 10 26 6 0 10 12 10 28 0 22 -2 24 -11 12 -8 -11 -9 -1 -4 35 4 28 9
52 12 55 14 14 233 19 929 19 l771 1 12 -37 c7 -24 15 -143 19 -313 5 -187 9
-249 13 -195 l5 80 2 -88 c1 -57 -2 -86 -8 -82 -6 4 -10 -28 -10 -90 0 -62 4
-94 10 -90 6 4 10 -25 10 -80 0 -55 -4 -84 -10 -80 -6 4 -10 -27 -10 -84 0
-54 4 -91 10 -91 6 0 10 -35 10 -85 0 -50 -4 -85 -10 -85 -6 0 -10 -35 -10
-84 0 -90 6 -100 49 -84 27 10 61 2 62 -15 10 -162 6 -171 -62 -162 l-49 7 0
-90 c0 -87 1 -89 23 -87 12 1 30 3 40 4 14 1 17 13 19 79 l2 77 3 -75 c3 -52
8 -77 18 -83 22 -12 21 -162 0 -171 -21 -8 -22 -154 -1 -170 8 -6 16 -20 17
-31 4 -32 -12 -134 -22 -140 -5 -4 -9 -41 -9 -85 0 -60 3 -79 15 -84 12 -4 15
-23 15 -85 0 -61 -3 -80 -15 -85 -21 -8 -22 -161 -1 -169 11 -5 14 -23 10 -83
-2 -43 -8 -82 -14 -88 -5 -5 -10 -45 -10 -87 0 -59 3 -78 15 -83 21 -8 20
-162 -1 -170 -21 -8 -20 -162 1 -170 22 -8 22 -176 0 -176 -12 0 -15 -16 -15
-85 0 -69 3 -85 15 -85 12 0 15 -16 15 -85 0 -69 -3 -85 -15 -85 -12 0 -15
-15 -15 -78 0 -64 3 -80 19 -94 15 -13 18 -26 15 -64 -4 -53 -3 -52 16 14 10
32 11 45 2 54 -16 16 -15 28 3 28 20 0 19 16 -2 24 -14 6 -14 8 3 21 16 12 16
16 5 24 -7 5 -10 14 -6 20 4 7 1 18 -5 26 -10 12 -10 15 0 15 7 0 10 10 6 28
-3 15 -7 63 -8 106 -1 47 -5 72 -9 60 -5 -12 -8 7 -8 47 -1 53 2 68 15 73 9 4
14 9 11 13 -4 3 -2 12 3 19 6 6 10 16 9 20 -1 5 3 22 9 37 9 21 9 34 1 49 -9
18 -9 20 4 15 12 -4 15 0 13 21 -2 14 -8 28 -13 29 -5 2 -8 28 -5 61 3 31 5
77 5 102 l-1 45 15 -38 c8 -20 19 -37 24 -37 4 0 6 7 3 15 -3 8 -16 65 -28
127 -18 91 -20 114 -9 116 7 2 11 7 8 12 -3 5 -12 7 -20 3 -8 -3 -15 -1 -15 5
0 6 6 12 12 15 10 3 10 7 0 19 -10 13 -10 17 5 22 12 5 14 9 6 14 -13 8 -12
29 1 50 4 7 2 19 -5 28 -9 12 -9 20 1 39 11 20 10 28 -4 50 -16 25 -16 28 -2
44 12 13 15 33 13 73 -2 30 -7 59 -11 66 -11 19 5 14 20 -5 18 -26 27 -11 13
23 -7 16 -14 38 -15 49 -15 101 -19 157 -13 167 8 13 10 7 33 -106 8 -37 22
-76 31 -85 16 -15 16 -14 1 16 -9 18 -19 77 -24 141 -6 71 -14 119 -24 134
-14 21 -14 26 -2 34 12 7 12 16 2 47 -6 20 -15 37 -20 37 -10 0 -10 -3 2 -35
8 -20 7 -26 -2 -23 -17 6 -18 84 -1 81 7 -2 10 4 6 13 -5 13 -2 15 15 10 23
-8 40 9 18 17 -9 4 -12 14 -9 26 3 12 0 27 -6 35 -10 11 -8 17 6 25 15 9 16
12 4 20 -8 5 -11 16 -8 24 3 9 1 17 -4 19 -13 4 -17 197 -5 201 5 2 1 12 -9
24 -22 26 -28 93 -8 100 7 3 20 0 28 -7 8 -7 15 -8 15 -2 0 5 -10 17 -22 25
-16 11 -19 19 -12 24 8 6 9 24 3 61 -4 31 -4 63 1 77 6 15 5 25 -1 27 -7 2 -6
13 2 30 10 22 9 29 -5 43 -9 9 -16 29 -16 45 0 16 -2 37 -5 47 -6 19 15 -23
33 -67 10 -23 11 -22 11 15 1 23 -7 53 -18 71 -17 29 -21 70 -7 93 3 5 1 11
-5 13 -14 5 -18 86 -5 118 5 14 8 29 7 34 -1 4 3 14 8 20 7 8 7 24 1 44 l-9
32 107 1 107 1 -100 14 c-55 7 -111 16 -125 20 -24 6 -24 7 -5 14 11 5 58 9
105 11 l85 2 -65 8 c-36 4 -89 11 -117 14 l-53 6 0 -44 c0 -48 -10 -58 -50
-47 -24 6 -25 9 -25 82 0 42 3 79 7 83 4 4 64 7 135 7 l128 0 -84 13 c-46 7
-89 19 -95 25 -8 10 16 11 113 6 68 -4 143 -9 167 -13 30 -4 44 -2 44 6 0 6
-11 11 -25 11 -17 0 -25 6 -25 18 0 12 -2 14 -8 4 -12 -18 -40 -5 -45 21 -4
22 -4 22 -6 0 0 -13 -6 -23 -12 -23 -12 0 -11 19 12 183 11 75 28 104 30 50
l1 -28 7 25 c9 30 34 29 98 -3 49 -23 62 -18 43 18 -8 14 -16 21 -20 16 -3 -6
-11 -6 -18 -2 -10 6 -11 20 -4 59 5 28 5 49 1 46 -5 -2 -11 -20 -15 -39 -3
-20 -11 -38 -17 -42 -10 -6 -9 0 9 92 4 23 3 26 -5 15 -6 -8 -11 -24 -11 -35
-1 -11 -7 -33 -15 -50 l-14 -30 5 40 c3 22 8 48 11 59 3 11 1 16 -5 12 -5 -3
-12 -23 -16 -45 -3 -22 -11 -43 -17 -47 -8 -5 -10 0 -6 17 3 13 9 48 13 77 3
28 9 52 13 52 3 0 4 22 3 50 -2 27 -8 50 -13 50 -28 0 10 55 66 94 20 14 20
15 2 66 -10 29 -16 54 -13 58 12 11 116 14 145 4 18 -7 31 -7 31 -2 0 5 -10
12 -22 15 -87 19 -117 25 -145 25 -37 0 -45 17 -10 22 21 3 22 8 25 91 l3 87
-1673 -2 -1673 -3 1563 -2 1562 -3 0 -31 c0 -22 -9 -40 -32 -61 l-33 -30 64
-23 c67 -25 98 -45 68 -45 -18 0 -77 -74 -77 -97 0 -7 -7 -16 -15 -19 -11 -5
-6 -16 25 -51 22 -25 40 -50 40 -54 0 -12 -17 -11 -25 1 -3 6 -18 10 -32 10
-17 0 -39 15 -69 48 -24 26 -44 53 -44 60 0 6 -4 12 -10 12 -17 0 -11 -27 14
-57 36 -43 51 -76 37 -81 -6 -2 -11 -10 -11 -17 0 -18 -17 -28 -31 -19 -7 4
-37 7 -68 8 -47 1 -56 4 -59 20 -3 11 4 26 14 33 18 14 18 15 1 27 -17 13 -25
62 -8 52 5 -4 7 2 4 12 -8 31 21 45 82 40 41 -4 55 -1 55 9 0 11 -222 13
-1290 13 -709 0 -1290 3 -1290 8 0 4 25 27 55 51 30 24 55 48 55 52 0 11 69
41 79 34 4 -2 21 0 37 5 l29 8 -35 1 c-63 2 -82 11 -77 37 7 41 -17 26 -36
-21 -24 -57 -86 -121 -145 -148 l-47 -22 -1810 0 -1810 0 -47 23 c-57 29 -108
83 -143 152 -15 29 -31 49 -38 47 -12 -5 -13 -11 -2 -38 7 -20 -19 -29 -84
-29 -24 0 -42 -2 -40 -4 4 -3 77 -14 106 -15 7 -1 42 -28 79 -61 36 -33 70
-60 75 -60 5 0 9 -4 9 -10 0 -7 -438 -10 -1295 -10 -1121 0 -1295 -2 -1295
-14 0 -8 5 -18 10 -21 6 -3 10 -13 10 -22 0 -14 -9 -26 -63 -84 -9 -10 -26
-19 -38 -19 -11 0 -29 -5 -40 -10 -29 -16 -24 6 11 51 l31 38 -25 49 c-14 28
-37 59 -51 70 l-26 21 40 20 c22 12 48 21 58 21 10 0 24 4 32 9 12 8 9 15 -17
39 -23 21 -32 39 -32 61 l0 31 2243 0 c1543 0 2246 -3 2253 -10 8 -8 15 -6 24
5 11 13 -224 15 -2364 15 l-2376 0 0 -90z m9555 -216 c19 -45 19 -74 1 -74 -8
0 -17 -8 -21 -17 -7 -17 -8 -16 -15 2 -5 12 -8 -37 -7 -115 2 -103 -2 -142
-13 -164 -23 -45 -40 -45 -30 0 5 20 12 106 16 191 6 141 8 154 21 132 10 -17
12 -18 8 -4 -4 11 -9 49 -12 85 l-4 65 20 -33 c12 -17 28 -48 36 -68z m-9451
54 c-3 -42 -14 -129 -20 -147 -3 -10 -11 -7 -29 11 -24 24 -25 27 -10 62 8 20
22 52 29 71 19 44 32 45 30 3z m58 10 c35 -41 60 -88 54 -104 -5 -14 -8 -14
-21 0 -8 8 -15 19 -15 25 0 6 -4 11 -9 11 -5 0 -16 20 -24 45 -17 50 -14 56
15 23z m9308 20 c0 -10 -39 -101 -40 -93 -1 6 -5 -1 -11 -13 -10 -26 -35 -25
-33 2 3 26 84 127 84 104z m-8980 -58 c0 -5 -6 -10 -14 -10 -10 0 -12 -12 -8
-51 3 -37 2 -50 -7 -45 -6 4 -11 3 -11 -3 0 -5 5 -13 10 -16 6 -3 10 -18 10
-32 0 -25 -1 -25 -59 -21 -54 4 -60 2 -75 -21 -14 -24 -15 -24 -16 -5 0 11 -6
29 -14 39 -17 24 -3 57 38 92 15 13 26 33 26 47 0 13 6 27 13 29 23 10 107 7
107 -3z m-368 -228 c3 -86 9 -167 13 -179 12 -37 -14 -27 -31 12 -8 21 -14 67
-14 117 0 101 11 221 19 212 3 -3 9 -76 13 -162z m27 53 c1 -16 -1 -17 -9 -5
-5 8 -9 31 -9 50 l1 35 8 -30 c4 -16 8 -39 9 -50z m9321 18 c0 -26 -3 -34 -11
-26 -9 9 -3 63 7 63 2 0 4 -17 4 -37z m-9220 -8 c-8 -10 -6 -15 11 -20 17 -6
19 -9 8 -16 -8 -5 -10 -9 -6 -9 4 0 3 -9 -3 -19 -11 -22 -48 -21 -65 2 -5 8
-16 12 -22 10 -22 -8 -14 27 10 51 17 17 31 22 51 19 20 -4 24 -8 16 -18z
m9172 -2 c22 -20 26 -62 4 -44 -11 9 -15 7 -18 -7 -3 -11 -17 -21 -31 -24 -22
-4 -28 0 -41 31 -10 25 -11 40 -4 49 15 17 68 15 90 -5z m-8962 -73 c0 -38 -2
-40 -30 -40 -25 0 -30 4 -30 24 0 40 11 56 36 56 21 0 24 -4 24 -40z m3510 0
c0 -38 -2 -40 -30 -40 -27 0 -30 3 -30 34 0 34 9 44 43 45 13 1 17 -7 17 -39z
m3510 0 c0 -38 -2 -40 -29 -40 -38 0 -43 10 -30 49 8 23 17 31 35 31 21 0 24
-4 24 -40z m1761 5 l6 -30 13 33 c11 30 30 44 30 22 0 -5 -4 -10 -8 -10 -4 0
-8 -15 -9 -32 -2 -53 -11 -109 -18 -116 -4 -4 -5 15 -4 43 l3 50 -42 -3 c-40
-3 -42 -2 -42 25 0 59 60 73 71 18z m-8869 -10 c3 -14 1 -28 -3 -31 -5 -3 -9
9 -9 25 0 38 6 40 12 6z m1755 -22 c-3 -10 -5 -2 -5 17 0 19 2 27 5 18 2 -10
2 -26 0 -35z m1750 0 c-3 -10 -5 -2 -5 17 0 19 2 27 5 18 2 -10 2 -26 0 -35z
m1760 0 c-3 -10 -5 -2 -5 17 0 19 2 27 5 18 2 -10 2 -26 0 -35z m1750 0 c-3
-10 -5 -2 -5 17 0 19 2 27 5 18 2 -10 2 -26 0 -35z m1760 0 c-3 -10 -5 -2 -5
17 0 19 2 27 5 18 2 -10 2 -26 0 -35z m-8798 -62 c1 -73 -4 -77 -12 -11 -3 25
-7 52 -8 60 -1 8 -1 24 0 35 l2 20 9 -20 c5 -11 9 -49 9 -84z m-119 48 c0 -6
-4 -7 -10 -4 -5 3 -10 11 -10 16 0 6 5 7 10 4 6 -3 10 -11 10 -16z m9153 -24
c-15 -44 -31 -66 -18 -24 4 12 8 27 9 33 2 13 15 36 21 36 2 0 -3 -20 -12 -45z
m-9176 -58 c5 -37 6 -70 2 -72 -11 -7 -18 19 -25 93 -9 89 10 72 23 -21z
m9208 -14 c-3 -29 -11 -55 -16 -58 -13 -8 -11 44 3 107 15 65 23 33 13 -49z
m-45 -10 c0 -19 -3 -24 -10 -17 -6 6 -8 18 -4 27 9 24 14 21 14 -10z m-5400
-150 l0 -84 -32 3 -33 3 -3 78 c-3 73 -1 78 20 86 42 15 48 5 48 -86z m3510 0
l0 -84 -32 3 -33 3 -3 82 c-3 78 -2 82 20 85 44 7 48 0 48 -89z m1778 47 c2
-13 1 -48 -3 -77 l-7 -54 -39 3 c-22 2 -39 6 -39 11 0 4 0 40 0 81 0 70 2 75
23 79 30 5 61 -15 65 -43z m-9071 -85 c14 -132 11 -158 -12 -134 -8 8 -18 55
-24 118 -15 139 -14 143 7 139 14 -3 19 -23 29 -123z m193 40 c0 -68 -10 -99
-25 -75 -14 23 -17 112 -5 135 21 38 30 20 30 -60z m1747 -48 c-2 -23 -3 -1
-3 48 0 50 1 68 3 42 2 -26 2 -67 0 -90z m1754 51 c2 -42 0 -80 -4 -84 -4 -4
-7 32 -7 81 0 107 7 109 11 3z m1756 -51 c-2 -23 -3 -1 -3 48 0 50 1 68 3 42
2 -26 2 -67 0 -90z m1750 0 c-2 -23 -3 -1 -3 48 0 50 1 68 3 42 2 -26 2 -67 0
-90z m2076 126 c6 -10 -20 -230 -28 -243 -3 -6 -13 -10 -22 -10 -11 0 -14 7
-10 23 3 12 8 60 12 107 8 111 12 130 30 130 7 0 16 -3 18 -7z m-9230 -114 c4
-57 6 -113 4 -124 -2 -20 -3 -20 -14 0 -6 11 -15 69 -19 129 -6 91 -5 108 7
104 10 -3 16 -34 22 -109z m43 -14 c5 -84 4 -107 -5 -99 -7 6 -14 57 -18 120
-4 78 -2 106 5 99 6 -6 14 -60 18 -120z m9072 15 c-3 -73 -9 -115 -18 -123
-10 -10 -11 3 -6 73 3 47 6 102 6 123 0 21 5 37 11 37 8 0 10 -32 7 -110z m51
38 c-1 -96 -11 -160 -26 -165 -10 -4 -11 19 -7 94 6 115 11 143 24 143 6 0 10
-31 9 -72z m-9092 -55 c-2 -21 -4 -4 -4 37 0 41 2 58 4 38 2 -21 2 -55 0 -75z
m8993 13 c-5 -49 -11 -90 -14 -93 -5 -5 4 156 10 176 11 34 12 -2 4 -83z
m-8983 -88 c-3 -8 -6 -5 -6 6 -1 11 2 17 5 13 3 -3 4 -12 1 -19z m3653 -213
c0 -88 -4 -95 -47 -87 -22 4 -23 9 -23 87 0 79 1 84 23 87 43 7 47 0 47 -87z
m3510 0 c0 -88 -4 -95 -47 -87 -22 4 -23 9 -23 87 0 79 1 84 23 87 43 7 47 0
47 -87z m-7100 6 c0 -44 -4 -83 -10 -86 -6 -4 -10 25 -10 79 0 51 4 86 10 86
6 0 10 -33 10 -79z m1747 -54 c-2 -23 -3 -1 -3 48 0 50 1 68 3 42 2 -26 2 -67
0 -90z m1763 54 c0 -44 -4 -83 -10 -86 -6 -4 -10 25 -10 79 0 51 4 86 10 86 6
0 10 -33 10 -79z m1747 -54 c-2 -23 -3 -1 -3 48 0 50 1 68 3 42 2 -26 2 -67 0
-90z m1763 54 c0 -44 -4 -83 -10 -86 -6 -4 -10 25 -10 79 0 51 4 86 10 86 6 0
10 -33 10 -79z m80 -347 c0 -82 -3 -91 -35 -84 -5 1 -22 2 -37 2 l-28 1 0 84
c0 49 4 83 10 83 6 0 11 -8 11 -17 1 -17 2 -17 6 0 2 9 13 17 24 17 10 0 19 5
19 11 0 8 5 8 15 -1 11 -9 15 -34 15 -96z m1748 87 c14 -7 17 -23 16 -86 -2
-85 -9 -97 -56 -88 -28 5 -28 6 -28 84 0 73 2 80 23 89 29 11 26 11 45 1z
m-8848 -86 c0 -50 -4 -85 -10 -85 -6 0 -10 35 -10 85 0 50 4 85 10 85 6 0 10
-35 10 -85z m3567 -142 c-3 -10 -5 -4 -5 12 0 17 2 24 5 18 2 -7 2 -21 0 -30z
m3510 -65 c-2 -18 -4 -6 -4 27 0 33 2 48 4 33 2 -15 2 -42 0 -60z m1760 5 c-2
-16 -4 -5 -4 22 0 28 2 40 4 28 2 -13 2 -35 0 -50z m-7020 35 c-3 -8 -6 -5 -6
6 -1 11 2 17 5 13 3 -3 4 -12 1 -19z m3510 -25 c-3 -10 -5 -2 -5 17 0 19 2 27
5 18 2 -10 2 -26 0 -35z m-5270 -285 c-3 -7 -5 -2 -5 12 0 14 2 19 5 13 2 -7
2 -19 0 -25z m1760 -75 c-2 -21 -4 -4 -4 37 0 41 2 58 4 38 2 -21 2 -55 0 -75z
m1750 0 c-2 -21 -4 -4 -4 37 0 41 2 58 4 38 2 -21 2 -55 0 -75z m1760 75 c-3
-7 -5 -2 -5 12 0 14 2 19 5 13 2 -7 2 -19 0 -25z m-5270 -85 c-2 -16 -4 -5 -4
22 0 28 2 40 4 28 2 -13 2 -35 0 -50z m5270 0 c-2 -16 -4 -5 -4 22 0 28 2 40
4 28 2 -13 2 -35 0 -50z m3601 -635 c-2 -9 -10 -1 -20 20 l-17 36 20 -21 c12
-11 19 -27 17 -35z m-18 -488 c0 -5 -4 -10 -10 -10 -5 0 -10 5 -10 10 0 6 5
10 10 10 6 0 10 -4 10 -10z"/>
<path d="M610 6701 c0 -5 3 -17 6 -26 6 -14 8 -14 25 1 26 23 24 34 -6 34 -14
0 -25 -4 -25 -9z"/>
<path d="M584 6617 c-8 -21 2 -35 16 -21 5 5 6 15 0 24 -8 12 -10 12 -16 -3z"/>
<path d="M7623 5495 c0 -33 2 -45 4 -27 2 18 2 45 0 60 -2 15 -4 0 -4 -33z"/>
<path d="M4982 6988 c-21 -21 -14 -66 12 -83 51 -34 111 30 71 75 -20 22 -65
26 -83 8z m64 -9 c6 -10 -11 -29 -26 -29 -3 0 -11 4 -19 9 -17 11 -5 31 19 31
10 0 22 -5 26 -11z m14 -59 c0 -5 -4 -10 -10 -10 -5 0 -10 5 -10 10 0 6 5 10
10 10 6 0 10 -4 10 -10z"/>
<path d="M5080 6985 c9 -10 16 -12 25 -5 6 5 92 11 191 13 l179 2 -204 3
c-181 2 -202 0 -191 -13z"/>
<path d="M5728 6993 c138 -2 366 -2 505 0 138 1 25 2 -253 2 -278 0 -391 -1
-252 -2z"/>
<path d="M3105 6925 c17 -8 46 -14 65 -13 l35 0 -35 9 c-19 4 -48 10 -65 13
l-30 6 30 -15z"/>
<path d="M6938 6935 c-3 -3 -25 -9 -49 -14 l-44 -9 36 -1 c20 -1 52 6 70 14
26 11 29 14 13 15 -11 0 -23 -2 -26 -5z"/>
<path d="M3083 6903 c3 -4 21 -17 41 -27 30 -16 42 -17 78 -9 l43 11 -53 1
c-29 0 -67 8 -84 17 -16 9 -28 12 -25 7z"/>
<path d="M6245 6883 c-9 -16 -29 -38 -44 -51 -21 -18 -23 -24 -12 -31 17 -11
43 -3 35 10 -3 5 5 24 18 41 20 29 32 58 23 58 -1 0 -10 -12 -20 -27z"/>
<path d="M6945 6895 c-16 -8 -57 -15 -90 -16 l-60 -1 49 -10 c41 -7 56 -6 92
12 24 11 44 22 44 25 0 6 2 7 -35 -10z"/>
<path d="M5005 6840 c22 -24 21 -24 29 -4 3 8 2 12 -3 9 -5 -3 -12 -1 -16 5
-3 5 -11 10 -17 10 -6 0 -3 -9 7 -20z"/>
<path d="M455 6831 c-31 -13 -36 -19 -22 -24 19 -7 75 2 82 13 3 4 -1 12 -8
18 -9 8 -24 6 -52 -7z"/>
<path d="M3823 6836 c13 -10 15 -16 6 -21 -8 -6 -7 -10 5 -17 9 -5 21 -6 27
-2 12 7 -27 54 -45 54 -6 0 -3 -7 7 -14z"/>
<path d="M4430 6830 c-22 -14 -11 -17 62 -22 72 -4 80 -1 26 11 -18 5 -42 11
-53 14 -11 4 -27 2 -35 -3z"/>
<path d="M5550 6824 c-40 -11 -42 -12 -14 -13 16 -1 39 6 50 14 10 8 17 14 14
13 -3 0 -25 -6 -50 -14z"/>
<path d="M9540 6825 c0 -8 8 -16 18 -16 47 -3 82 -4 82 -1 0 6 -69 32 -85 32
-8 0 -15 -7 -15 -15z"/>
<path d="M3243 6813 c9 -2 25 -2 35 0 9 3 1 5 -18 5 -19 0 -27 -2 -17 -5z"/>
<path d="M6778 6813 c12 -2 30 -2 40 0 9 3 -1 5 -23 4 -22 0 -30 -2 -17 -4z"/>
<path d="M3418 6793 c6 -2 18 -2 25 0 6 3 1 5 -13 5 -14 0 -19 -2 -12 -5z"/>
<path d="M3578 6793 c7 -3 16 -2 19 1 4 3 -2 6 -13 5 -11 0 -14 -3 -6 -6z"/>
<path d="M5000 6790 c0 -5 9 -10 20 -10 11 0 20 5 20 10 0 6 -9 10 -20 10 -11
0 -20 -4 -20 -10z"/>
<path d="M6458 6793 c6 -2 18 -2 25 0 6 3 1 5 -13 5 -14 0 -19 -2 -12 -5z"/>
<path d="M6618 6793 c6 -2 18 -2 25 0 6 3 1 5 -13 5 -14 0 -19 -2 -12 -5z"/>
<path d="M3343 6783 c9 -2 23 -2 30 0 6 3 -1 5 -18 5 -16 0 -22 -2 -12 -5z"/>
<path d="M3496 6782 c-2 -4 11 -6 30 -4 19 2 34 6 34 8 0 8 -59 4 -64 -4z"/>
<path d="M3668 6783 c7 -3 16 -2 19 1 4 3 -2 6 -13 5 -11 0 -14 -3 -6 -6z"/>
<path d="M6385 6780 c27 -12 43 -12 25 0 -8 5 -22 9 -30 9 -10 0 -8 -3 5 -9z"/>
<path d="M6500 6786 c0 -2 15 -6 34 -8 19 -2 32 0 30 4 -5 8 -64 12 -64 4z"/>
<path d="M6688 6783 c6 -2 18 -2 25 0 6 3 1 5 -13 5 -14 0 -19 -2 -12 -5z"/>
<path d="M2367 6704 c-3 -4 -2 -15 4 -26 9 -16 12 -17 24 -4 8 8 15 19 15 25
0 12 -33 15 -43 5z"/>
<path d="M4120 6698 c0 -28 14 -37 34 -23 10 8 15 18 11 24 -9 15 -45 14 -45
-1z"/>
<path d="M5874 6699 c-3 -6 -2 -15 3 -20 13 -13 43 -1 43 17 0 16 -36 19 -46
3z"/>
<path d="M7630 6692 c0 -27 9 -32 31 -19 27 17 24 37 -6 37 -18 0 -25 -5 -25
-18z"/>
<path d="M9385 6700 c-4 -6 -1 -17 5 -25 10 -12 14 -12 26 0 8 7 14 18 14 24
0 14 -37 14 -45 1z"/>
<path d="M2440 6634 c0 -14 -4 -23 -10 -19 -5 3 -10 1 -10 -4 0 -6 4 -11 9
-11 5 0 12 -12 14 -27 2 -16 5 -2 6 30 0 31 -1 57 -4 57 -3 0 -5 -12 -5 -26z"/>
<path d="M5950 6629 c0 -11 -4 -17 -10 -14 -5 3 -10 1 -10 -4 0 -6 4 -11 9
-11 5 0 12 -12 14 -27 2 -16 5 -4 6 25 0 28 -1 52 -4 52 -3 0 -5 -9 -5 -21z"/>
<path d="M9440 6610 c0 -5 5 -10 11 -10 5 0 7 5 4 10 -3 6 -8 10 -11 10 -2 0
-4 -4 -4 -10z"/>
<path d="M9891 6599 c-35 -14 -83 -57 -71 -64 9 -5 100 60 100 71 0 5 1 5 -29
-7z"/>
<path d="M150 6580 c14 -11 29 -20 33 -20 4 0 11 -9 15 -21 7 -18 10 -19 20
-6 10 12 5 19 -26 41 -45 31 -80 36 -42 6z"/>
<path d="M9815 6420 c-3 -5 -1 -10 4 -10 6 0 11 5 11 10 0 6 -2 10 -4 10 -3 0
-8 -4 -11 -10z"/>
<path d="M241 6364 c0 -11 3 -14 6 -6 3 7 2 16 -1 19 -3 4 -6 -2 -5 -13z"/>
<path d="M683 6185 c0 -38 2 -53 4 -32 2 20 2 52 0 70 -2 17 -4 1 -4 -38z"/>
<path d="M9747 6211 c-4 -18 -7 -43 -6 -55 1 -11 5 -1 10 24 5 25 7 49 6 55
-2 5 -7 -5 -10 -24z"/>
<path d="M292 6190 c0 -14 2 -19 5 -12 2 6 2 18 0 25 -3 6 -5 1 -5 -13z"/>
<path d="M261 6184 c0 -11 3 -14 6 -6 3 7 2 16 -1 19 -3 4 -6 -2 -5 -13z"/>
<path d="M9705 6135 c-4 -37 -5 -69 -2 -71 2 -3 8 25 12 61 4 37 5 69 2 71 -2
3 -8 -25 -12 -61z"/>
<path d="M9811 6174 c0 -11 3 -14 6 -6 3 7 2 16 -1 19 -3 4 -6 -2 -5 -13z"/>
<path d="M9771 6164 c0 -11 3 -14 6 -6 3 7 2 16 -1 19 -3 4 -6 -2 -5 -13z"/>
<path d="M303 6125 c0 -22 2 -30 4 -17 2 12 2 30 0 40 -3 9 -5 -1 -4 -23z"/>
<path d="M271 6134 c0 -11 3 -14 6 -6 3 7 2 16 -1 19 -3 4 -6 -2 -5 -13z"/>
<path d="M332 6125 c0 -16 2 -22 5 -12 2 9 2 23 0 30 -3 6 -5 -1 -5 -18z"/>
<path d="M9762 6110 c0 -14 2 -19 5 -12 2 6 2 18 0 25 -3 6 -5 1 -5 -13z"/>
<path d="M9732 6100 c0 -14 2 -19 5 -12 2 6 2 18 0 25 -3 6 -5 1 -5 -13z"/>
<path d="M312 6055 c0 -16 2 -22 5 -12 2 9 2 23 0 30 -3 6 -5 -1 -5 -18z"/>
<path d="M9752 6055 c0 -16 2 -22 5 -12 2 9 2 23 0 30 -3 6 -5 -1 -5 -18z"/>
<path d="M9722 6040 c0 -14 2 -19 5 -12 2 6 2 18 0 25 -3 6 -5 1 -5 -13z"/>
<path d="M9460 5891 c0 -20 4 -21 108 -20 l107 1 -80 13 c-44 7 -92 16 -107
20 -24 6 -28 4 -28 -14z"/>
<path d="M328 5763 c7 -3 16 -2 19 1 4 3 -2 6 -13 5 -11 0 -14 -3 -6 -6z"/>
<path d="M9758 5753 c7 -3 16 -2 19 1 4 3 -2 6 -13 5 -11 0 -14 -3 -6 -6z"/>
<path d="M9373 5180 c0 -30 2 -43 4 -27 2 15 2 39 0 55 -2 15 -4 2 -4 -28z"/>
<path d="M4111 5144 c0 -11 3 -14 6 -6 3 7 2 16 -1 19 -3 4 -6 -2 -5 -13z"/>
<path d="M7701 4874 c0 -11 3 -14 6 -6 3 7 2 16 -1 19 -3 4 -6 -2 -5 -13z"/>
<path d="M7621 4854 c0 -11 3 -14 6 -6 3 7 2 16 -1 19 -3 4 -6 -2 -5 -13z"/>
<path d="M4191 4834 c0 -11 3 -14 6 -6 3 7 2 16 -1 19 -3 4 -6 -2 -5 -13z"/>
<path d="M7700 4790 c0 -33 -4 -60 -10 -60 -6 0 -10 -33 -10 -80 0 -44 4 -80
9 -80 5 0 12 -8 14 -17 3 -10 5 53 6 140 0 86 -1 157 -4 157 -3 0 -5 -27 -5
-60z"/>
<path d="M673 4733 c-20 -7 -18 -159 2 -167 13 -4 15 9 15 84 0 50 -1 90 -2
89 -2 0 -9 -3 -15 -6z"/>
<path d="M2427 4733 c-11 -11 -8 -163 3 -163 6 0 10 35 10 85 0 85 -1 91 -13
78z"/>
<path d="M4183 4733 c-20 -7 -18 -159 2 -167 13 -4 15 9 15 84 0 50 -1 90 -2
89 -2 0 -9 -3 -15 -6z"/>
<path d="M5937 4733 c-11 -11 -8 -163 3 -163 6 0 10 35 10 85 0 85 -1 91 -13
78z"/>
<path d="M9350 4651 l0 -90 30 4 c17 2 34 6 39 9 4 3 9 39 9 80 2 68 0 74 -21
80 -56 15 -57 13 -57 -83z"/>
<path d="M506 4449 c-8 -43 -8 -59 3 -59 5 0 9 20 9 45 1 53 -3 58 -12 14z"/>
<path d="M7693 4395 c-19 -21 -17 -161 2 -169 13 -4 15 9 15 89 0 52 -1 95 -2
95 -2 -1 -9 -7 -15 -15z"/>
<path d="M674 4392 c-6 -4 -11 -41 -12 -83 -2 -60 1 -78 13 -83 13 -4 15 9 15
84 0 50 -1 90 -2 90 -2 0 -8 -4 -14 -8z"/>
<path d="M4183 4392 c-17 -11 -15 -159 3 -166 11 -4 14 13 14 84 0 50 -1 90
-2 90 -2 0 -8 -4 -15 -8z"/>
<path d="M9350 4311 l0 -88 28 2 c15 1 32 3 37 3 6 1 11 35 11 81 0 72 -2 80
-20 85 -54 15 -56 12 -56 -83z"/>
<path d="M5861 4094 c0 -11 3 -14 6 -6 3 7 2 16 -1 19 -3 4 -6 -2 -5 -13z"/>
<path d="M673 4052 c-17 -10 -13 -160 4 -167 10 -3 13 17 13 85 0 50 -1 90 -2
90 -2 0 -8 -4 -15 -8z"/>
<path d="M2330 3971 c0 -86 1 -88 23 -86 12 1 29 3 37 4 12 1 15 17 15 78 0
83 -5 91 -52 92 -22 1 -23 -2 -23 -88z"/>
<path d="M2427 4053 c-11 -11 -8 -163 3 -163 6 0 10 35 10 85 0 85 -1 91 -13
78z"/>
<path d="M4184 4052 c-16 -10 -13 -160 4 -167 9 -3 12 18 12 85 0 50 -1 90 -2
90 -2 0 -8 -4 -14 -8z"/>
<path d="M5840 3969 l0 -88 31 4 c18 3 33 6 35 7 8 9 8 158 -1 160 -5 0 -22 2
-37 3 l-28 2 0 -88z"/>
<path d="M5937 4053 c-11 -11 -8 -163 3 -163 6 0 10 35 10 85 0 85 -1 91 -13
78z"/>
<path d="M7693 4053 c-20 -7 -18 -159 2 -167 13 -4 15 9 15 84 0 50 -1 90 -2
89 -2 0 -9 -3 -15 -6z"/>
<path d="M9350 3971 c0 -96 -5 -89 57 -82 7 1 13 29 15 81 3 72 1 79 -17 84
-53 15 -55 12 -55 -83z"/>
<path d="M2333 3810 c0 -36 2 -50 4 -32 2 17 2 47 0 65 -2 17 -4 3 -4 -33z"/>
<path d="M2331 3615 c1 -71 4 -116 8 -100 3 17 12 30 19 31 43 3 42 2 42 84 0
79 0 80 -27 86 -16 4 -31 12 -35 18 -4 6 -7 -47 -7 -119z"/>
<path d="M5860 3719 c0 -6 -4 -7 -10 -4 -6 4 -10 -27 -10 -85 0 -58 4 -89 10
-85 6 3 10 -2 10 -12 1 -17 1 -17 11 0 5 9 17 17 24 17 10 0 15 11 16 33 0 17
1 53 2 78 2 42 -1 47 -25 57 -18 6 -28 7 -28 1z"/>
<path d="M672 3703 c-12 -26 -8 -141 6 -155 9 -9 12 9 12 80 0 51 -2 92 -5 92
-2 0 -8 -8 -13 -17z"/>
<path d="M2427 3713 c-11 -11 -8 -163 3 -163 6 0 10 35 10 85 0 85 -1 91 -13
78z"/>
<path d="M4185 3714 c-14 -6 -10 -153 4 -167 8 -8 11 13 11 81 0 51 -1 92 -2
91 -2 0 -7 -2 -13 -5z"/>
<path d="M5937 3713 c-11 -11 -8 -163 3 -163 6 0 10 35 10 85 0 85 -1 91 -13
78z"/>
<path d="M7693 3713 c-20 -7 -18 -159 2 -167 13 -4 15 9 15 84 0 50 -1 90 -2
89 -2 0 -9 -3 -15 -6z"/>
<path d="M9350 3631 c0 -86 1 -88 23 -86 12 1 28 3 35 4 8 1 12 24 12 80 0 83
-5 91 -51 91 -17 0 -19 -8 -19 -89z"/>
<path d="M2331 3464 c0 -11 3 -14 6 -6 3 7 2 16 -1 19 -3 4 -6 -2 -5 -13z"/>
<path d="M2331 3309 c-1 -105 -1 -106 22 -104 12 1 28 3 35 4 8 1 12 24 12 81
l0 81 -29 5 c-17 4 -32 14 -34 23 -3 9 -5 -32 -6 -90z"/>
<path d="M5860 3379 c0 -6 -4 -7 -10 -4 -6 4 -10 -26 -10 -83 0 -87 1 -89 23
-87 12 1 28 3 35 4 8 1 12 24 12 79 0 74 -1 79 -25 90 -17 8 -25 8 -25 1z"/>
<path d="M675 3368 c-2 -7 -6 -46 -7 -85 -2 -51 1 -74 9 -78 10 -3 13 17 13
85 0 84 -5 107 -15 78z"/>
<path d="M2427 3373 c-11 -11 -8 -163 3 -163 6 0 10 35 10 85 0 85 -1 91 -13
78z"/>
<path d="M4184 3366 c-12 -31 -9 -156 4 -161 9 -3 12 18 12 85 0 86 -4 106
-16 76z"/>
<path d="M5937 3373 c-11 -11 -8 -163 3 -163 6 0 10 35 10 85 0 85 -1 91 -13
78z"/>
<path d="M7692 3367 c-16 -18 -11 -155 6 -162 9 -3 12 18 12 85 0 50 -2 90 -4
90 -2 0 -8 -6 -14 -13z"/>
<path d="M9350 3291 c0 -86 1 -88 23 -86 12 1 29 3 37 4 12 1 14 15 12 78 -4
81 -10 93 -49 93 -22 0 -23 -3 -23 -89z"/>
<path d="M9547 3253 c-4 -3 -7 -11 -7 -17 0 -6 5 -5 12 2 6 6 9 14 7 17 -3 3
-9 2 -12 -2z"/>
<path d="M2330 2953 l0 -102 27 5 c42 8 43 11 43 95 0 82 -1 84 -46 78 -4 0
-11 5 -15 13 -5 7 -9 -29 -9 -89z"/>
<path d="M5852 3032 c-8 -2 -12 -31 -12 -87 0 -88 4 -95 47 -87 22 4 23 9 23
87 0 78 -1 83 -23 87 -12 2 -28 3 -35 0z"/>
<path d="M9363 3033 c-9 -3 -13 -30 -13 -88 0 -89 6 -99 48 -84 21 8 23 13 20
85 -3 66 -6 78 -23 84 -11 4 -26 5 -32 3z"/>
<path d="M670 2945 c0 -50 4 -85 10 -85 6 0 10 35 10 85 0 50 -4 85 -10 85 -6
0 -10 -35 -10 -85z"/>
<path d="M2427 3023 c-11 -10 -8 -151 3 -158 6 -4 10 25 10 79 0 86 -1 92 -13
79z"/>
<path d="M4180 2946 c0 -47 5 -88 10 -91 6 -4 10 27 10 84 0 54 -4 91 -10 91
-6 0 -10 -35 -10 -84z"/>
<path d="M5937 3023 c-11 -10 -8 -151 3 -158 6 -4 10 25 10 79 0 86 -1 92 -13
79z"/>
<path d="M7687 3023 c-10 -17 -1 -153 11 -165 9 -10 12 6 12 80 0 80 -8 110
-23 85z"/>
<path d="M2330 2605 l0 -92 33 6 32 7 3 82 c2 73 1 82 -15 83 -10 0 -26 2 -35
4 -16 3 -18 -7 -18 -90z"/>
<path d="M4187 2693 c-11 -11 -8 -173 3 -173 6 0 10 37 10 90 0 90 -1 96 -13
83z"/>
<path d="M5852 2692 c-8 -2 -12 -31 -12 -87 0 -88 6 -99 48 -84 20 8 22 15 22
88 0 74 -1 79 -23 83 -12 2 -28 3 -35 0z"/>
<path d="M7694 2688 c-12 -20 -9 -161 4 -166 9 -3 12 22 12 87 0 90 -2 102
-16 79z"/>
<path d="M9362 2692 c-8 -2 -12 -31 -12 -88 l0 -85 33 3 32 3 3 81 c3 78 2 82
-20 86 -13 2 -29 3 -36 0z"/>
<path d="M670 2605 c0 -50 4 -85 10 -85 6 0 10 35 10 85 0 50 -4 85 -10 85 -6
0 -10 -35 -10 -85z"/>
<path d="M2427 2683 c-11 -10 -8 -151 3 -158 6 -4 10 25 10 79 0 86 -1 92 -13
79z"/>
<path d="M5930 2611 c0 -44 5 -83 10 -86 6 -4 10 25 10 79 0 51 -4 86 -10 86
-6 0 -10 -33 -10 -79z"/>
<path d="M561 2315 c0 -99 -9 -174 -23 -191 -5 -8 -2 -14 8 -18 13 -5 15 -9 6
-18 -16 -16 -15 -28 3 -28 12 0 15 13 15 59 0 59 0 60 29 59 46 -1 51 7 51 93
0 75 -1 79 -22 80 -13 1 -30 2 -38 3 -8 0 -17 12 -21 26 -4 15 -7 -12 -8 -65z"/>
<path d="M2330 2265 c0 -83 2 -93 18 -90 9 2 25 4 35 4 15 1 17 12 17 86 0 74
-2 85 -17 86 -10 0 -26 2 -35 4 -16 3 -18 -7 -18 -90z"/>
<path d="M4187 2353 c-11 -11 -8 -173 3 -173 6 0 10 37 10 90 0 90 -1 96 -13
83z"/>
<path d="M5852 2352 c-8 -2 -12 -31 -12 -87 0 -88 4 -95 47 -87 22 4 23 9 23
87 0 78 -1 83 -23 87 -12 2 -28 3 -35 0z"/>
<path d="M7694 2348 c-13 -20 -10 -150 3 -167 10 -13 12 3 13 82 0 96 -2 108
-16 85z"/>
<path d="M9362 2352 c-8 -2 -12 -31 -12 -88 l0 -84 35 0 35 0 0 84 c0 79 -1
84 -23 88 -12 2 -28 3 -35 0z"/>
<path d="M670 2265 c0 -50 4 -85 10 -85 6 0 10 35 10 85 0 50 -4 85 -10 85 -6
0 -10 -35 -10 -85z"/>
<path d="M2420 2271 c0 -44 5 -83 10 -86 6 -4 10 25 10 79 0 51 -4 86 -10 86
-6 0 -10 -33 -10 -79z"/>
<path d="M5930 2271 c0 -44 5 -83 10 -86 6 -4 10 25 10 79 0 51 -4 86 -10 86
-6 0 -10 -33 -10 -79z"/>
<path d="M9440 2272 c0 -67 3 -80 22 -96 l21 -18 -6 38 c-4 22 -7 65 -7 97 0
44 -3 57 -15 57 -12 0 -15 -15 -15 -78z"/>
<path d="M9471 2134 c0 -11 3 -14 6 -6 3 7 2 16 -1 19 -3 4 -6 -2 -5 -13z"/>
<path d="M9476 2045 c-3 -9 0 -15 9 -15 9 0 12 6 9 15 -4 8 -7 15 -9 15 -2 0
-5 -7 -9 -15z"/>
<path d="M536 2035 c-19 -14 -18 -15 13 -15 21 0 31 4 29 12 -6 18 -21 19 -42
3z"/>
<path d="M588 2012 c-18 -3 -23 -22 -19 -77 3 -54 -14 -64 -88 -52 -50 9 -65
9 -69 -1 -2 -8 -21 -10 -61 -5 -36 3 -61 2 -65 -5 -4 -6 -30 -8 -66 -5 -56 5
-60 4 -60 -16 0 -11 4 -21 9 -21 5 0 19 -17 32 -37 12 -21 28 -43 36 -49 18
-15 41 -142 32 -177 l-7 -27 4826 0 c3096 0 4822 4 4812 10 -8 5 -34 10 -57
10 -37 0 -43 3 -49 26 -9 36 14 140 45 199 14 28 26 54 26 58 0 5 -34 10 -75
12 -101 4 -141 10 -149 23 -9 15 -91 3 -98 -16 -4 -8 6 -24 25 -38 60 -47 102
-151 94 -232 l-3 -34 -120 6 c-128 5 -158 13 -118 29 23 10 23 11 3 14 -26 5
-40 43 -16 43 13 0 13 2 -3 13 -17 13 -17 14 6 22 50 17 -361 27 -662 16 -22
-1 -26 -6 -26 -31 0 -30 1 -30 57 -30 38 0 62 -5 70 -15 10 -12 7 -13 -17 -7
-15 4 -46 5 -69 2 -35 -4 -41 -8 -39 -28 1 -13 -2 -25 -6 -28 -7 -4 -15 36
-21 110 l-3 30 -197 1 c-109 1 -198 -2 -198 -7 0 -4 -15 -5 -32 -2 -25 4 -29
3 -18 -5 12 -9 11 -11 -7 -11 -12 0 -25 5 -28 10 -8 13 -45 13 -45 0 0 -13
-27 -13 -32 -1 -1 5 -43 10 -93 11 -129 3 -145 1 -143 -12 2 -7 -13 -12 -42
-13 -25 -1 -65 -5 -90 -9 -25 -5 -42 -6 -39 -2 9 10 47 18 107 23 28 3 52 8
52 11 0 6 -48 6 -167 1 -13 -1 -23 -5 -23 -10 0 -5 -7 -9 -15 -9 -8 0 -15 7
-15 15 0 8 -4 15 -10 15 -5 0 -10 -6 -10 -14 0 -11 -8 -12 -37 -5 -87 22 -125
20 -104 -4 7 -9 1 -12 -20 -12 -16 0 -34 7 -39 15 -9 13 -11 13 -20 0 -8 -12
-12 -12 -18 -2 -11 16 -85 19 -90 4 -4 -14 -42 -16 -42 -2 0 6 -86 9 -222 9
-210 -1 -221 -2 -185 -16 20 -8 37 -19 37 -24 0 -6 -8 -6 -19 0 -10 6 -42 8
-70 4 -54 -6 -68 6 -28 25 21 10 20 11 -10 11 -17 1 -33 -5 -36 -11 -3 -10 -7
-10 -18 -1 -19 15 -181 15 -191 0 -5 -9 -10 -9 -20 1 -8 8 -50 12 -135 12
-116 0 -123 -1 -123 -20 0 -16 -7 -20 -30 -20 -16 0 -30 5 -30 11 0 8 -14 10
-45 6 -34 -5 -45 -3 -45 7 0 8 -13 13 -35 14 -36 1 -48 -13 -17 -21 12 -3 11
-5 -6 -6 -13 0 -21 -5 -17 -11 7 -11 -96 -1 -110 11 -5 5 0 9 12 9 12 0 25 5
28 10 4 6 -21 10 -69 10 l-76 0 10 -26 c9 -22 8 -25 -6 -20 -8 3 -27 6 -40 6
-13 0 -24 5 -24 10 0 6 9 10 19 10 11 0 22 3 24 8 6 9 -118 15 -145 6 -15 -4
-17 -9 -7 -20 9 -11 8 -14 -5 -14 -9 0 -19 6 -22 13 -5 15 -44 20 -44 6 0 -5
5 -9 12 -9 6 0 8 -3 5 -6 -4 -4 -13 -1 -21 5 -9 7 -21 9 -28 5 -19 -12 -109
-15 -143 -5 -16 5 -22 10 -13 10 9 1 20 6 23 11 10 16 -87 8 -103 -7 -15 -15
-82 -18 -82 -4 0 5 12 12 28 14 26 4 25 4 -5 6 -17 0 -35 -4 -38 -9 -5 -7 -11
-8 -18 -1 -7 5 -54 11 -105 13 -90 3 -92 2 -92 -19 0 -19 -6 -23 -29 -23 -17
0 -33 5 -37 11 -4 7 -23 9 -50 5 -41 -5 -61 6 -31 17 6 3 -7 6 -29 6 -37 1
-43 -2 -48 -25 -5 -19 -11 -24 -26 -19 -11 3 -52 6 -92 7 -63 0 -70 2 -53 14
10 8 33 12 52 10 18 -3 33 -1 33 4 0 7 -109 20 -119 14 -1 -2 -4 -14 -5 -29
-1 -21 -5 -25 -21 -21 -11 3 -31 6 -44 6 -19 0 -22 4 -18 21 5 19 2 20 -41 15
-26 -2 -48 -5 -49 -5 -2 -1 -3 -7 -3 -15 0 -20 -19 -31 -32 -18 -7 7 -19 7
-34 2 -15 -6 -24 -5 -27 3 -3 9 -9 9 -25 0 -14 -8 -23 -9 -27 -3 -4 6 -11 7
-18 3 -19 -11 -60 -11 -89 1 -34 13 -36 26 -5 27 12 0 16 3 9 6 -7 3 -20 2
-30 -3 -9 -4 -22 -6 -29 -5 -6 1 -14 -3 -18 -9 -3 -5 -35 -10 -71 -10 -44 0
-63 -4 -59 -11 9 -14 -117 -8 -128 6 -6 6 -10 6 -14 -2 -6 -17 -43 -17 -43 0
0 7 5 18 11 24 7 7 7 13 0 17 -5 4 -16 -6 -24 -21 -12 -23 -22 -27 -63 -29
-35 -2 -43 0 -29 7 14 6 3 8 -36 6 -37 -1 -56 -6 -56 -14 0 -10 24 -13 84 -13
83 0 84 0 78 -22 -4 -13 -13 -33 -21 -45 -13 -21 -18 -21 -238 -21 -124 1
-223 5 -220 10 3 4 -2 8 -11 8 -9 0 -13 -4 -10 -10 3 -5 -1 -10 -9 -10 -9 0
-16 6 -16 14 0 12 -4 12 -30 -1 -19 -9 -41 -12 -61 -8 -33 8 -34 30 0 29 11 0
21 3 21 8 0 4 -11 8 -25 8 -14 0 -25 -4 -25 -8 0 -4 -16 -14 -35 -21 -30 -11
-37 -10 -51 4 -10 10 -20 12 -28 6 -10 -8 -96 -20 -96 -14 0 9 27 49 40 60 8
7 35 13 60 12 66 -1 70 0 70 16 0 16 -16 20 -24 6 -5 -7 -67 -8 -143 -2 -23 2
-14 31 10 32 17 1 18 2 4 6 -10 3 -24 0 -32 -7 -7 -6 -53 -15 -102 -19 -48 -4
-92 -9 -98 -11 -5 -1 -20 -2 -33 -1 -22 1 -22 2 -7 17 9 9 13 19 10 22 -3 4
-10 0 -15 -8 -7 -10 -10 -11 -10 -2 0 7 -14 12 -35 12 -23 0 -33 -4 -30 -13 5
-13 -33 -42 -43 -33 -3 3 3 15 13 26 l18 20 -214 -1 c-118 -1 -206 -4 -196 -6
9 -3 17 -9 17 -14 0 -6 5 -7 10 -4 6 3 15 3 21 -1 23 -14 -14 -21 -40 -8 -14
8 -32 14 -38 14 -7 0 -13 5 -13 10 0 6 -12 10 -26 10 -18 0 -25 -4 -21 -14 7
-16 -33 -9 -45 8 -6 8 -11 6 -18 -4 -8 -12 -10 -12 -10 -1 0 11 -4 11 -18 -2
-22 -20 -39 -23 -24 -4 9 10 2 13 -31 14 -23 0 -34 -2 -24 -4 22 -6 12 -23
-13 -23 -11 0 -17 5 -15 13 4 8 -12 13 -54 15 -52 2 -59 0 -64 -18 -3 -13 -13
-20 -29 -20 l-23 1 24 19 23 20 -22 0 c-13 0 -31 -10 -42 -22 l-19 -22 -6 22
c-4 17 -13 22 -38 22 -27 0 -32 -3 -29 -17 4 -16 -4 -18 -55 -21 -58 -2 -61
-1 -58 20 2 18 -3 23 -23 23 -21 0 -25 -5 -28 -30 -1 -16 -5 -49 -8 -73 l-5
-43 -47 2 c-26 2 -58 -1 -71 -5 -16 -6 -21 -5 -17 3 5 7 -6 11 -33 11 -23 0
-41 5 -41 10 0 22 33 60 53 60 11 0 17 3 14 7 -4 3 0 17 8 30 20 30 3 29 -31
-2 -37 -35 -49 -32 -43 11 2 19 -48 22 -285 18 -144 -3 -269 -5 -278 -5 -29 0
-20 -15 15 -27 l32 -10 -25 -8 -25 -8 25 -7 c24 -7 24 -7 -5 -9 -30 -2 -30 -2
-5 -10 24 -8 24 -8 3 -9 -13 -1 -23 -6 -23 -11 0 -6 10 -14 23 -19 16 -6 1
-11 -63 -17 -47 -5 -96 -7 -109 -5 -23 4 -23 7 -19 70 6 80 34 139 91 192 50
46 59 48 52 12 -6 -26 -5 -26 8 -10 17 20 34 22 39 5 3 -8 12 -5 27 9 19 18
22 29 19 93 -3 62 -6 74 -23 80 -11 3 -28 5 -37 2z m1863 -345 c-10 -9 -11 -8
-5 6 3 10 9 15 12 12 3 -3 0 -11 -7 -18z m2739 8 c0 -8 -7 -15 -15 -15 -16 0
-20 12 -8 23 11 12 23 8 23 -8z m720 2 c0 -7 -9 -13 -21 -14 -17 -2 -18 1 -9
13 15 17 30 18 30 1z m455 3 c3 -5 -1 -10 -10 -10 -9 0 -13 5 -10 10 3 6 8 10
10 10 2 0 7 -4 10 -10z m45 6 c0 -3 -4 -8 -10 -11 -5 -3 -10 -1 -10 4 0 6 5
11 10 11 6 0 10 -2 10 -4z m1550 -17 c0 -5 -9 -9 -20 -9 -22 0 -27 16 -7 23
15 5 27 -1 27 -14z m495 11 c8 -13 -25 -13 -45 0 -12 8 -9 10 12 10 15 0 30
-4 33 -10z m340 -8 c-3 -3 -11 0 -18 7 -9 10 -8 11 6 5 10 -3 15 -9 12 -12z
m-6412 -3 c-10 -10 -44 -13 -100 -8 -60 4 -34 15 38 16 46 1 68 -2 62 -8z
m187 7 c0 -3 -4 -8 -10 -11 -5 -3 -10 -1 -10 4 0 6 5 11 10 11 6 0 10 -2 10
-4z m1520 -6 c0 -5 -5 -10 -11 -10 -5 0 -7 5 -4 10 3 6 8 10 11 10 2 0 4 -4 4
-10z m352 -5 c0 -5 -5 -11 -11 -13 -6 -2 -11 4 -11 13 0 9 5 15 11 13 6 -2 11
-8 11 -13z m2033 5 c-3 -5 -14 -10 -23 -10 -15 0 -15 2 -2 10 20 13 33 13 25
0z m212 4 c-3 -3 -12 -4 -19 -1 -8 3 -5 6 6 6 11 1 17 -2 13 -5z m693 -4 c0
-5 -7 -7 -15 -4 -8 4 -15 8 -15 10 0 2 7 4 15 4 8 0 15 -4 15 -10z m1256 1
c-3 -5 -15 -7 -26 -4 -28 7 -25 13 6 13 14 0 23 -4 20 -9z m-2926 -11 c0 -5
-2 -10 -4 -10 -3 0 -8 5 -11 10 -3 6 -1 10 4 10 6 0 11 -4 11 -10z m890 0 c0
-5 -10 -10 -22 -9 -22 0 -22 1 -3 9 11 5 21 9 23 9 1 1 2 -3 2 -9z m-5060 -50
c0 -25 -4 -30 -25 -30 -13 0 -36 -5 -50 -12 -20 -9 -28 -9 -38 2 -10 10 -8 12
11 7 12 -3 22 -2 22 2 0 5 10 13 23 19 19 11 17 12 -20 9 -36 -2 -43 1 -43 15
0 15 9 18 60 18 l60 0 0 -30z m126 19 c3 -5 -8 -8 -25 -7 -17 1 -31 5 -31 9 0
10 50 8 56 -2z m324 1 c0 -5 -17 -9 -37 -9 -38 1 -38 1 -8 9 43 11 45 11 45 0z
m159 -6 c2 -2 -14 -4 -37 -4 -23 0 -42 5 -42 10 0 10 67 4 79 -6z m284 6 c-11
-11 -25 -13 -135 -11 -58 1 -98 5 -98 11 0 6 46 10 121 9 66 -1 117 -5 112 -9z
m433 -3 c-3 -7 -9 -19 -12 -28 -10 -29 -114 -64 -114 -39 0 6 16 10 35 10 19
0 35 4 35 10 0 5 -13 7 -30 4 -23 -5 -30 -3 -30 9 0 9 8 18 18 20 15 4 15 5
-1 6 -11 0 -21 -7 -24 -18 -3 -11 -14 -22 -26 -25 -28 -7 -31 -2 -17 24 10 18
9 21 -2 16 -7 -3 -21 -9 -30 -12 -19 -7 -23 -19 -10 -27 4 -2 1 -2 -7 0 -7 2
-19 -1 -25 -6 -6 -5 -20 -10 -31 -11 -38 -4 -40 1 -5 13 36 12 42 35 8 29 -10
-2 -18 1 -18 6 0 5 -21 9 -47 7 -39 -1 -48 -5 -53 -23 -4 -18 -7 -19 -23 -7
-16 11 -16 16 -5 34 12 20 21 21 216 20 153 0 202 -3 198 -12z m1690 -15 c-2
-15 -5 -32 -5 -38 -1 -7 -18 -11 -43 -10 -24 1 -58 -2 -76 -7 -20 -5 -45 -5
-60 1 -17 6 -37 6 -52 0 -20 -7 -23 -7 -12 3 6 7 12 16 12 20 0 14 -65 14 -75
1 -15 -19 -111 -28 -131 -11 -14 11 -18 11 -28 -1 -12 -16 -136 -27 -136 -13
0 5 -26 8 -58 8 -31 0 -61 4 -65 10 -6 7 -10 6 -14 -2 -3 -9 -10 -10 -23 -3
-12 7 -28 7 -44 0 -30 -11 -34 2 -14 44 l11 26 409 0 409 0 -5 -28z m304 16
c0 -5 -12 -8 -27 -8 -19 0 -24 -3 -15 -9 9 -6 0 -13 -32 -23 -34 -11 -46 -12
-46 -3 0 6 10 17 23 23 18 9 2 11 -81 9 -97 -2 -111 1 -95 17 9 9 273 3 273
-6z m140 3 c3 -1 -3 -8 -13 -15 -15 -12 -16 -14 -2 -20 20 -7 19 -26 -1 -26
-9 0 -18 9 -21 20 -5 18 -36 34 -59 29 -20 -3 -35 1 -30 10 5 7 106 9 126 2z
m425 0 c9 -16 -364 -18 -392 -3 -6 4 78 8 187 10 132 2 200 0 205 -7z m405 -3
c0 -4 -4 -8 -10 -8 -5 0 -10 -5 -10 -11 0 -5 4 -8 10 -4 15 9 61 -6 57 -19 -3
-6 -11 -9 -18 -8 -8 2 -25 5 -38 6 -13 2 -30 11 -38 21 -10 14 -13 15 -14 4 0
-10 -2 -10 -6 -1 -2 6 -12 12 -21 12 -15 0 -15 -2 -2 -10 12 -8 9 -10 -12 -10
-14 0 -29 6 -31 13 -3 6 -6 2 -6 -10 -1 -21 9 -28 32 -24 5 1 6 -3 3 -8 -7
-11 -119 -2 -124 11 -6 13 -28 10 -61 -9 -16 -10 -33 -14 -38 -9 -4 5 -2 11 4
13 7 3 22 12 34 22 22 17 22 18 -22 19 -23 1 -47 6 -52 11 -6 6 60 9 177 8
102 0 186 -5 186 -9z m450 -7 c0 -11 5 -23 10 -26 6 -3 10 -15 10 -26 0 -15
-7 -19 -36 -19 -27 0 -35 3 -31 14 6 15 -29 33 -40 22 -4 -3 1 -6 10 -6 10 0
17 -4 17 -8 0 -6 -237 -8 -292 -3 -5 1 -8 8 -8 16 0 8 -17 19 -40 25 -22 6
-38 15 -35 20 3 5 102 9 220 10 208 1 215 0 215 -19z m240 4 c0 -9 10 -15 26
-15 16 0 23 -4 18 -12 -9 -13 77 -4 104 12 13 7 9 9 -20 10 -20 0 -39 -6 -42
-12 -5 -10 -7 -10 -12 0 -3 6 -20 12 -37 13 l-32 1 35 9 c44 10 429 8 436 -3
6 -10 -19 -11 -152 -8 -65 1 -104 -2 -108 -9 -4 -6 -21 -11 -39 -11 -24 0 -28
-3 -19 -12 9 -9 19 -10 42 -1 16 6 32 7 35 3 3 -5 -4 -11 -15 -15 -11 -3 -20
-11 -20 -16 0 -14 -20 -11 -37 7 -15 15 -85 14 -127 -2 -11 -4 -15 -2 -11 8 4
9 -6 18 -27 26 -21 8 -34 9 -36 2 -2 -5 -8 -10 -13 -10 -4 0 -6 7 -3 15 4 9 0
15 -10 15 -9 0 -16 -8 -16 -19 0 -10 -7 -22 -16 -25 -23 -9 -28 -1 -15 22 10
18 7 20 -36 20 -25 1 -51 6 -57 12 -7 7 23 10 97 10 88 0 107 -3 107 -15z
m600 6 c0 -6 -8 -9 -17 -9 -10 0 -22 0 -28 -2 -5 -1 -19 -1 -30 0 -13 2 -7 5
15 10 52 11 60 11 60 1z m170 0 c24 -7 24 -8 -6 -12 -43 -7 -105 1 -98 12 6
10 68 10 104 0z m155 -6 c6 -2 -18 -4 -53 -4 -35 -1 -61 3 -58 8 5 8 85 5 111
-4z m57 -7 c-6 -6 -16 -7 -22 -3 -9 6 -9 9 1 16 17 10 34 0 21 -13z m58 13 c0
-13 -28 -22 -35 -11 -3 4 1 11 7 13 20 8 28 8 28 -2z m200 -1 c0 -11 -128 -11
-135 0 -3 5 26 8 65 9 38 0 70 -4 70 -9z m810 2 c0 -4 -9 -13 -20 -20 -17 -10
-20 -10 -20 6 0 11 8 18 20 19 11 1 20 -1 20 -5z m30 -2 c0 -5 -5 -10 -11 -10
-5 0 -7 5 -4 10 3 6 8 10 11 10 2 0 4 -4 4 -10z m50 0 c0 -5 -7 -10 -15 -10
-8 0 -15 5 -15 10 0 6 7 10 15 10 8 0 15 -4 15 -10z m-6943 -6 c-3 -3 -12 -4
-19 -1 -8 3 -5 6 6 6 11 1 17 -2 13 -5z m100 0 c-3 -3 -12 -4 -19 -1 -8 3 -5
6 6 6 11 1 17 -2 13 -5z m6159 -2 c-6 -9 -125 -7 -134 3 -3 3 27 5 67 5 40 0
70 -4 67 -8z m437 1 c-7 -2 -21 -2 -30 0 -10 3 -4 5 12 5 17 0 24 -2 18 -5z
m1363 -2 c-5 -8 -56 -3 -56 5 0 2 14 4 31 4 16 0 28 -4 25 -9z m-5038 -26 c10
-9 -73 -5 -88 5 -10 6 1 8 34 5 27 -3 52 -7 54 -10z m377 5 c-3 -5 -14 -10
-23 -9 -14 0 -13 2 3 9 27 11 27 11 20 0z m35 0 c0 -5 -4 -10 -10 -10 -5 0
-10 5 -10 10 0 6 5 10 10 10 6 0 10 -4 10 -10z m287 -17 c-3 -3 -11 -2 -17 2
-9 6 -9 10 1 16 14 8 27 -7 16 -18z m926 20 c-7 -2 -19 -2 -25 0 -7 3 -2 5 12
5 14 0 19 -2 13 -5z m857 -3 c0 -5 -2 -10 -4 -10 -3 0 -8 5 -11 10 -3 6 -1 10
4 10 6 0 11 -4 11 -10z m513 3 c-7 -2 -19 -2 -25 0 -7 3 -2 5 12 5 14 0 19 -2
13 -5z m-5323 -12 c0 -12 -29 -23 -41 -15 -5 3 -7 10 -4 15 8 12 45 12 45 0z
m170 0 c0 -6 -29 -24 -60 -37 -3 -2 -7 8 -8 20 -1 19 4 23 33 24 19 1 35 -2
35 -7z m2380 -1 c0 -5 -7 -7 -15 -4 -9 4 -15 0 -15 -10 0 -9 -4 -16 -9 -16 -7
0 -8 17 -2 38 3 7 41 0 41 -8z m334 -5 c-4 -10 0 -15 14 -15 12 0 24 -4 27
-10 12 -19 -29 -10 -52 12 -18 17 -23 18 -23 6 0 -13 -6 -13 -35 -4 -50 15
-43 23 20 25 44 1 53 -2 49 -14z m56 5 c0 -5 -7 -10 -15 -10 -8 0 -15 5 -15
10 0 6 7 10 15 10 8 0 15 -4 15 -10z m163 3 c-7 -2 -19 -2 -25 0 -7 3 -2 5 12
5 14 0 19 -2 13 -5z m885 -18 c-3 -3 -9 2 -12 12 -6 14 -5 15 5 6 7 -7 10 -15
7 -18z m492 10 c0 -8 -7 -15 -16 -15 -14 0 -14 3 -4 15 7 8 14 15 16 15 2 0 4
-7 4 -15z m1160 6 c0 -5 -9 -7 -20 -4 -11 3 -20 7 -20 9 0 2 9 4 20 4 11 0 20
-4 20 -9z m835 -1 c3 -5 -1 -10 -9 -10 -8 0 -18 5 -21 10 -3 6 1 10 9 10 8 0
18 -4 21 -10z m-6555 -10 c0 -5 -6 -10 -14 -10 -8 0 -18 5 -21 10 -3 6 3 10
14 10 12 0 21 -4 21 -10z m3454 4 c9 -3 16 -10 16 -16 0 -5 -4 -6 -10 -3 -5 3
-10 1 -10 -5 0 -6 -4 -8 -10 -5 -10 6 -14 35 -6 35 2 0 11 -3 20 -6z m1346 -4
c0 -5 -2 -10 -4 -10 -3 0 -8 5 -11 10 -3 6 -1 10 4 10 6 0 11 -4 11 -10z m165
0 c-3 -5 -11 -10 -16 -10 -6 0 -7 5 -4 10 3 6 11 10 16 10 6 0 7 -4 4 -10z
m305 6 c0 -3 -4 -8 -10 -11 -5 -3 -10 -1 -10 4 0 6 5 11 10 11 6 0 10 -2 10
-4z m1230 -6 c0 -12 -8 -12 -35 0 -18 8 -17 9 8 9 15 1 27 -3 27 -9z m-4160
-10 c0 -5 -4 -10 -10 -10 -5 0 -10 5 -10 10 0 6 5 10 10 10 6 0 10 -4 10 -10z
m530 -6 c0 -2 -9 -4 -20 -4 -11 0 -20 4 -20 9 0 5 9 7 20 4 11 -3 20 -7 20 -9z
m1322 -6 c-7 -7 -12 -8 -12 -2 0 14 12 26 19 19 2 -3 -1 -11 -7 -17z m648 12
c0 -5 -4 -10 -10 -10 -5 0 -10 5 -10 10 0 6 5 10 10 10 6 0 10 -4 10 -10z
m-1550 -10 c12 -8 11 -10 -7 -10 -13 0 -23 5 -23 10 0 13 11 13 30 0z m760 0
c0 -5 -2 -10 -4 -10 -3 0 -8 5 -11 10 -3 6 -1 10 4 10 6 0 11 -4 11 -10z m285
0 c3 -5 1 -10 -4 -10 -6 0 -11 5 -11 10 0 6 2 10 4 10 3 0 8 -4 11 -10z"/>
<path d="M3756 1609 c6 -11 31 -12 37 -1 3 4 -6 8 -19 8 -13 1 -21 -2 -18 -7z"/>
<path d="M3860 1610 c0 -5 7 -10 16 -10 8 0 12 5 9 10 -3 6 -10 10 -16 10 -5
0 -9 -4 -9 -10z"/>
<path d="M4125 1610 c-28 -7 -28 -8 -5 -9 14 0 32 4 40 9 17 11 8 11 -35 0z"/>
<path d="M4211 1604 c-12 -14 -11 -16 4 -12 10 1 20 9 23 16 5 17 -10 15 -27
-4z"/>
<path d="M4347 1613 c-4 -3 -7 -11 -7 -17 0 -6 5 -5 12 2 6 6 9 14 7 17 -3 3
-9 2 -12 -2z"/>
<path d="M3815 1600 c3 -5 14 -10 23 -10 15 0 15 2 2 10 -20 13 -33 13 -25 0z"/>
<path d="M3918 1603 c7 -3 16 -2 19 1 4 3 -2 6 -13 5 -11 0 -14 -3 -6 -6z"/>
<path d="M4391 1601 c-10 -6 1 -8 30 -4 24 3 46 7 48 9 10 9 -65 3 -78 -5z"/>
<path d="M3976 1584 c-8 -22 -8 -24 7 -24 7 0 13 9 13 20 0 24 -11 26 -20 4z"/>
<path d="M4024 1585 c-18 -15 -18 -15 5 -13 14 2 26 9 29 16 5 17 -10 15 -34
-3z"/>
<path d="M4393 1573 c9 -2 23 -2 30 0 6 3 -1 5 -18 5 -16 0 -22 -2 -12 -5z"/>
<path d="M5590 1620 c-17 -4 -21 -8 -12 -14 6 -4 17 -4 22 -1 6 4 17 1 25 -5
9 -8 20 -8 31 -2 12 7 13 11 5 17 -7 4 -15 4 -18 1 -3 -3 -11 -2 -17 2 -6 5
-22 6 -36 2z"/>
<path d="M5949 1616 c0 0 -2 -9 -4 -18 -3 -18 13 -18 64 -2 7 2 20 -1 28 -8
13 -10 15 -9 12 7 -4 16 -13 20 -52 21 -26 1 -47 1 -48 0z"/>
<path d="M6065 1610 c-4 -6 6 -10 22 -10 22 0 25 2 13 10 -19 12 -27 12 -35 0z"/>
<path d="M6185 1610 c-8 -13 5 -13 25 0 13 8 13 10 -2 10 -9 0 -20 -4 -23 -10z"/>
<path d="M6148 1603 c7 -3 16 -2 19 1 4 3 -2 6 -13 5 -11 0 -14 -3 -6 -6z"/>
<path d="M2331 1917 c0 -56 3 -96 6 -89 2 6 9 12 14 12 6 0 7 -4 4 -10 -3 -5
-1 -10 4 -10 6 0 11 5 11 10 0 6 7 10 15 10 12 0 15 16 15 85 0 74 -2 85 -17
86 -10 0 -26 2 -35 4 -16 3 -18 -7 -17 -98z"/>
<path d="M4186 2012 c-11 -17 -9 -163 2 -174 9 -9 12 12 12 85 0 92 -2 107
-14 89z"/>
<path d="M5852 2012 c-8 -2 -12 -33 -11 -100 0 -53 3 -91 6 -83 5 11 7 11 15
0 7 -11 11 -11 15 -1 2 6 11 12 19 12 11 0 14 18 14 84 0 79 -1 84 -23 88 -12
2 -28 3 -35 0z"/>
<path d="M7695 2009 c-14 -21 -12 -153 2 -174 11 -17 13 -6 13 83 0 100 -2
113 -15 91z"/>
<path d="M9363 2013 c-21 -7 -17 -160 4 -181 12 -12 18 -13 21 -4 2 6 10 12
18 12 12 0 14 15 12 81 -3 71 -6 83 -23 89 -11 4 -26 5 -32 3z"/>
<path d="M670 1925 c0 -50 4 -85 10 -85 6 0 10 35 10 85 0 50 -4 85 -10 85 -6
0 -10 -35 -10 -85z"/>
<path d="M2427 2003 c-11 -10 -8 -151 3 -158 6 -4 10 25 10 79 0 86 -1 92 -13
79z"/>
<path d="M5937 2003 c-11 -10 -8 -151 3 -158 6 -4 10 25 10 79 0 86 -1 92 -13
79z"/>
<path d="M9444 1997 c-9 -25 1 -150 12 -154 17 -6 21 15 16 95 -4 67 -15 91
-28 59z"/>
<path d="M1259 1683 c-13 -16 -12 -17 4 -4 9 7 17 15 17 17 0 8 -8 3 -21 -13z"/>
<path d="M1458 1693 c6 -2 18 -2 25 0 6 3 1 5 -13 5 -14 0 -19 -2 -12 -5z"/>
<path d="M2718 1693 c6 -2 18 -2 25 0 6 3 1 5 -13 5 -14 0 -19 -2 -12 -5z"/>
<path d="M3185 1690 c-3 -5 1 -10 9 -10 9 0 16 5 16 10 0 6 -4 10 -9 10 -6 0
-13 -4 -16 -10z"/>
<path d="M3301 1670 c-5 -16 -7 -30 -3 -30 4 0 16 14 25 30 15 25 16 30 4 30
-8 0 -20 -13 -26 -30z"/>
<path d="M3826 1685 c10 -8 26 -14 34 -15 8 0 2 7 -14 15 -36 19 -45 19 -20 0z"/>
<path d="M4530 1690 c-9 -6 -10 -10 -3 -10 6 0 15 5 18 10 8 12 4 12 -15 0z"/>
<path d="M4726 1685 c10 -8 24 -14 29 -14 6 0 1 6 -9 14 -11 8 -24 15 -30 15
-5 0 -1 -7 10 -15z"/>
<path d="M5980 1695 c0 -2 10 -10 23 -16 20 -11 21 -11 8 4 -13 16 -31 23 -31
12z"/>
<path d="M2915 1680 c-3 -5 -1 -10 4 -10 6 0 11 5 11 10 0 6 -2 10 -4 10 -3 0
-8 -4 -11 -10z"/>
<path d="M3130 1669 c0 -18 -4 -20 -45 -13 -30 4 -45 3 -45 -5 0 -7 37 -11
116 -11 66 0 113 4 110 9 -4 5 -33 7 -66 5 -60 -3 -70 2 -48 24 9 9 8 12 -5
12 -11 0 -17 -8 -17 -21z"/>
<path d="M4180 1679 c0 -5 5 -7 10 -4 6 3 10 8 10 11 0 2 -4 4 -10 4 -5 0 -10
-5 -10 -11z"/>
<path d="M5430 1680 c0 -5 9 -10 19 -10 11 0 23 5 26 10 4 6 -5 10 -19 10 -14
0 -26 -4 -26 -10z"/>
<path d="M5508 1683 c6 -2 18 -2 25 0 6 3 1 5 -13 5 -14 0 -19 -2 -12 -5z"/>
<path d="M1320 1670 c0 -5 -18 -10 -40 -10 -22 0 -40 -4 -40 -10 0 -5 25 -10
55 -10 48 0 55 2 55 20 0 11 -7 20 -15 20 -8 0 -15 -4 -15 -10z"/>
<path d="M3339 1649 c-13 -4 27 -7 90 -8 63 -1 112 1 109 4 -8 8 -173 11 -199
4z"/>
<path d="M1317 1613 c-32 -8 -73 -33 -55 -33 9 0 20 5 23 10 5 8 11 8 20 0 9
-8 17 -6 29 5 25 25 22 28 -17 18z"/>
<path d="M2978 1608 c-9 -5 -7 -8 7 -9 29 -2 49 2 58 10 10 10 -49 10 -65 -1z"/>
<path d="M3150 1604 c0 -14 3 -14 15 -4 8 7 15 14 15 16 0 2 -7 4 -15 4 -8 0
-15 -7 -15 -16z"/>
<path d="M2905 1600 c-13 -6 -15 -9 -5 -9 8 0 22 4 30 9 18 12 2 12 -25 0z"/>
<path d="M3506 1593 c-6 -14 -5 -15 5 -6 7 7 10 15 7 18 -3 3 -9 -2 -12 -12z"/>
<path d="M188 1543 c7 -3 16 -2 19 1 4 3 -2 6 -13 5 -11 0 -14 -3 -6 -6z"/>
</g>
</svg>
